<svg width="162" height="162" viewBox="0 0 162 162" fill="none" xmlns="http://www.w3.org/2000/svg">
<g clip-path="url(#clip0_2237_3)">
<path d="M25.3125 5.0625V0H35.4375V5.0625C35.4375 16.2463 44.5037 25.3125 55.6875 25.3125H60.75V30.375V35.4375H55.6875C44.5037 35.4375 35.4375 44.5037 35.4375 55.6875V60.75H30.375H25.3125V55.6875C25.3125 44.5037 16.2463 35.4375 5.0625 35.4375H0V30.375V25.3125H5.0625C16.2463 25.3125 25.3125 16.2463 25.3125 5.0625Z" fill="black"/>
<path d="M146.812 45.5625V50.625H136.688V45.5625C136.688 39.9707 132.155 35.4375 126.562 35.4375H121.5V30.375V25.3125H126.562C132.155 25.3125 136.688 20.7793 136.688 15.1875V10.125H141.75H146.812V15.1875C146.812 20.7793 151.345 25.3125 156.938 25.3125H162V30.375V35.4375H156.938C151.345 35.4375 146.812 39.9707 146.812 45.5625Z" fill="black"/>
<path d="M85.1215 49.9101L86.0625 40.5H96.1875L97.1285 49.9101C99.526 73.8856 118.49 92.849 142.465 95.2465L151.875 96.1875V106.312L142.465 107.253C118.49 109.651 99.526 128.615 97.1285 152.59L96.1875 162H86.0625L85.1215 152.59C82.724 128.615 63.7606 109.651 39.7851 107.253L30.375 106.312V96.1875L39.7851 95.2465C63.7606 92.849 82.724 73.8856 85.1215 49.9101Z" fill="black"/>
</g>
<defs>
<clipPath id="clip0_2237_3">
<rect width="162" height="162" fill="white"/>
</clipPath>
</defs>
</svg>
