<svg width="62" height="34" viewBox="0 0 62 34" fill="none" xmlns="http://www.w3.org/2000/svg">
<path d="M14.3596 16.1712C15.0809 14.9125 14.6389 13.3186 13.3724 12.6111C12.1058 11.9036 10.4943 12.3505 9.77301 13.6092L1.30562 28.3847C0.584285 29.6434 1.02627 31.2373 2.29282 31.9448C3.55937 32.6523 5.17087 32.2055 5.8922 30.9467L14.3596 16.1712Z" fill="#87B715"/>
<path d="M32.6106 4.84116C33.3319 3.58244 32.8899 1.98851 31.6234 1.28102C30.3568 0.573534 28.7453 1.02039 28.024 2.27911L19.5566 17.0546C18.8353 18.3133 19.2772 19.9073 20.5438 20.6147C21.8103 21.3222 23.4218 20.8754 24.1432 19.6167L32.6106 4.84116Z" fill="#87B715"/>
<path d="M60.6936 4.84116C61.4149 3.58244 60.9729 1.98851 59.7064 1.28102C58.4398 0.573534 56.8283 1.02039 56.107 2.27911L47.6396 17.0546C46.9183 18.3133 47.3603 19.9073 48.6268 20.6147C49.8934 21.3222 51.5049 20.8754 52.2262 19.6167L60.6936 4.84116Z" fill="#87B715"/>
<path d="M42.4367 16.1712C43.1581 14.9125 42.7161 13.3186 41.4495 12.6111C40.183 11.9036 38.5715 12.3505 37.8502 13.6092L29.3828 28.3847C28.6614 29.6434 29.1034 31.2373 30.37 31.9448C31.6365 32.6523 33.248 32.2055 33.9694 30.9467L42.4367 16.1712Z" fill="#87B715"/>
</svg>
