<svg width="23" height="28" viewBox="0 0 23 28" fill="none" xmlns="http://www.w3.org/2000/svg">
<path fill-rule="evenodd" clip-rule="evenodd" d="M0.209637 19.0083C-0.0659575 18.5736 -0.070121 18.0199 0.198904 17.581L10.3282 1.05805C10.8916 0.139047 12.252 0.219402 12.7033 1.19833L21.9569 21.2716C22.3002 22.0164 21.905 22.8927 21.1194 23.1284L6.72474 27.4468C6.14558 27.6205 5.52155 27.3877 5.19781 26.877L0.209637 19.0083ZM11.4969 5.88922C11.5945 5.40315 12.2605 5.33306 12.4572 5.78815L18.8402 20.5581C18.9603 20.8362 18.8108 21.1569 18.5205 21.2435L8.57492 24.2124C8.20935 24.3215 7.85916 24.0021 7.93428 23.628L11.4969 5.88922Z" fill="white"/>
</svg>
