<svg width="148" height="178" viewBox="0 0 148 178" fill="none" xmlns="http://www.w3.org/2000/svg">
<path d="M138.2 23.4991C146.1 34.5991 149.2 48.2991 146.8 61.6991C145.7 67.9991 143.2 73.9991 139.7 79.3991C144.9 89.1991 146.6 100.499 144.6 111.399C142.2 124.499 134.5 135.999 123.2 143.099L81.8997 169.399C58.3997 184.399 25.7997 177.399 9.39972 153.799C1.49972 142.899 -1.60028 129.099 0.799717 115.699C1.89972 109.399 4.39972 103.399 7.89972 97.9991C2.69972 88.1991 0.999717 76.8991 2.99972 65.9991C5.39972 52.8991 13.0997 41.2991 24.3997 34.2991L65.6997 7.89908C89.1997 -7.10092 121.7 -0.100924 138.2 23.4991Z" fill="#FF3E00"/>
<path d="M61.5998 156.2C64.5998 155.4 67.3998 154.2 69.9998 152.5L111.3 126.2C118.1 121.9 122.8 115 124.2 107.1C125.6 99.1002 123.8 90.8002 119 84.1002C111.2 72.8002 97.0998 67.6002 83.7998 71.0002C80.7998 71.8002 77.9998 73.0002 75.3998 74.7002L59.5998 84.7002C58.7998 85.2002 57.9998 85.6002 57.0998 85.8002C53.0998 86.8002 48.7998 85.3002 46.4998 81.9002C45.0998 79.9002 44.4998 77.4002 44.8998 75.0002C45.2998 72.6002 46.6998 70.5002 48.7998 69.3002L90.0998 43.0002C90.8998 42.5002 91.6998 42.1002 92.5998 41.9002C96.5998 40.9002 100.9 42.4002 103.2 45.8002C104.5 47.6002 105.1 49.8002 104.9 51.9002V53.4002C104.8 53.4002 106.3 53.9002 106.3 53.9002C112.1 55.7002 117.6 58.4002 122.5 62.0002L124.6 63.6002L125.4 61.2002C125.8 59.9002 126.1 58.6002 126.4 57.3002C127.8 49.3002 126 41.0002 121.2 34.3002C113.4 23.0002 99.2998 17.8002 85.9998 21.2002C82.9998 22.0002 80.1998 23.2002 77.5998 24.9002L36.2998 51.2002C29.4998 55.5002 24.7998 62.4002 23.3998 70.3002C21.9998 78.3002 23.7998 86.6002 28.5998 93.3002C36.3998 104.6 50.4998 109.8 63.7998 106.4C66.7998 105.6 69.5998 104.4 72.1998 102.7L87.9998 92.6002C88.7998 92.1002 89.5998 91.7002 90.4998 91.5002C94.4998 90.5002 98.7998 92.0002 101.1 95.4002C102.5 97.4002 103.1 99.9002 102.7 102.3C102.3 104.7 100.9 106.8 98.7998 108.1L57.4998 134.4C56.6998 134.9 55.8998 135.3 54.9998 135.5C50.9998 136.5 46.6998 135 44.3998 131.6C43.0998 129.8 42.4998 127.6 42.6998 125.5V124C42.7998 124 41.2998 123.5 41.2998 123.5C35.4998 121.7 29.9998 119 25.0998 115.4L22.9998 113.8L22.1998 116.2C21.7998 117.5 21.4998 118.8 21.1998 120.1C19.7998 128.1 21.5998 136.4 26.3998 143.1C34.1998 154.4 48.2998 159.6 61.5998 156.2Z" fill="white"/>
</svg>
