<svg width="478" height="164" viewBox="0 0 478 164" fill="none" xmlns="http://www.w3.org/2000/svg">
<g clip-path="url(#clip0_2115_3)">
<path d="M163.53 0H0V163.53H163.53V0Z" fill="#0A0A0A"/>
<path d="M105.02 34.5098L38.7197 129.19H58.6797L124.98 34.5098H105.02Z" fill="white"/>
<path d="M278 127.079C272.571 128.863 266.904 129.818 261.19 129.909C251.483 129.909 242.94 127.909 235.56 123.909C228.429 120.165 222.509 114.47 218.49 107.489C214.444 100.348 212.373 92.2569 212.49 84.0494C212.49 73.9161 214.637 65.1361 218.93 57.7094C223.004 50.4958 229.032 44.5788 236.32 40.6394C243.691 36.6694 251.948 34.6327 260.32 34.7195C265.317 34.6909 270.297 35.3196 275.13 36.5895C279.483 37.7353 283.679 39.4147 287.62 41.5895L283.5 53.0494C280.216 51.2906 276.735 49.9277 273.13 48.9894C269.469 47.9053 265.678 47.3201 261.86 47.2495C255.22 47.1166 248.65 48.6208 242.73 51.6294C237.312 54.4285 232.849 58.7763 229.91 64.1195C226.802 69.9395 225.249 76.4632 225.4 83.0595C225.289 89.3205 226.846 95.4984 229.91 100.959C232.885 106.17 237.316 110.4 242.66 113.129C248.482 116.086 254.941 117.569 261.47 117.449C264.673 117.444 267.866 117.109 271 116.449C273.708 115.946 276.318 115.01 278.73 113.679V95.2594H260.18V83.2594H291.35V120.869C288.517 123.103 284.073 125.163 278.02 127.049L278 127.079Z" fill="#0A0A0A"/>
<path d="M329.68 80.4491C332.069 78.31 334.787 76.5709 337.73 75.2991C340.086 74.2178 342.615 73.5643 345.2 73.3691L344.68 85.3691C341.032 85.149 337.396 85.9526 334.18 87.6891C331.115 89.3413 328.572 91.8179 326.84 94.8391C325.106 97.7883 324.195 101.148 324.2 104.569V128.919H312.2V75.5591H322.89L323.79 88.1791C325.188 85.2251 327.184 82.593 329.65 80.4491H329.68Z" fill="#0A0A0A"/>
<path d="M357.5 87.3402C360.014 83.0227 363.668 79.4801 368.06 77.1002C372.742 74.5638 377.997 73.2757 383.32 73.3602C388.604 73.2672 393.819 74.5564 398.45 77.1002C402.757 79.479 406.321 83.0021 408.75 87.2802C411.225 91.6821 412.492 96.6606 412.42 101.71C412.484 106.778 411.219 111.774 408.75 116.2C406.322 120.518 402.728 124.066 398.38 126.44C393.686 128.861 388.486 130.141 383.203 130.174C377.921 130.207 372.705 128.993 367.98 126.63C363.606 124.355 359.966 120.888 357.48 116.63C354.882 112.087 353.569 106.923 353.68 101.69C353.628 96.6483 354.941 91.6863 357.48 87.3302L357.5 87.3402ZM368.06 111.1C369.48 113.849 371.615 116.163 374.24 117.8C377.547 119.802 381.439 120.613 385.269 120.098C389.1 119.583 392.64 117.774 395.3 114.97C398.583 111.396 400.338 106.681 400.19 101.83C400.328 96.9634 398.576 92.2325 395.3 88.6302C393.749 86.8954 391.84 85.5186 389.704 84.5948C387.568 83.6711 385.257 83.2225 382.93 83.2802C379.827 83.233 376.778 84.1064 374.17 85.7902C371.581 87.4774 369.473 89.8063 368.05 92.5502C366.569 95.4175 365.796 98.5979 365.796 101.825C365.796 105.052 366.569 108.233 368.05 111.1H368.06Z" fill="#0A0A0A"/>
<path d="M455.72 96.5507L475.42 80.7007L468.08 74.2707L440.52 96.4207V34.7207H428.54V128.881H440.52V108.911L447.47 103.251L463.96 128.881H478L455.72 96.5507Z" fill="#0A0A0A"/>
</g>
<defs>
<clipPath id="clip0_2115_3">
<rect width="478" height="163.53" fill="white"/>
</clipPath>
</defs>
</svg>
