<svg width="1180" height="320" viewBox="0 0 1180 320" fill="none" xmlns="http://www.w3.org/2000/svg">
<g clip-path="url(#clip0_2115_10)">
<path d="M367.44 153.839C367.44 206.159 401.04 242.639 447.6 242.639C494.16 242.639 527.76 206.159 527.76 153.839C527.76 101.519 494.16 65.0391 447.6 65.0391C401.04 65.0391 367.44 101.519 367.44 153.839ZM497.04 153.839C497.04 191.279 476.64 215.519 447.6 215.519C418.56 215.519 398.16 191.279 398.16 153.839C398.16 116.399 418.56 92.1591 447.6 92.1591C476.64 92.1591 497.04 116.399 497.04 153.839Z" fill="black"/>
<path d="M614.271 242.64C649.551 242.64 669.711 212.88 669.711 177.12C669.711 141.36 649.551 111.6 614.271 111.6C597.951 111.6 585.951 118.08 578.031 127.44V114H549.23V283.2H578.031V226.8C585.951 236.16 597.951 242.64 614.271 242.64ZM577.31 173.52C577.31 149.76 590.75 136.8 608.51 136.8C629.39 136.8 640.67 153.12 640.67 177.12C640.67 201.12 629.39 217.44 608.51 217.44C590.75 217.44 577.31 204.24 577.31 180.96V173.52Z" fill="black"/>
<path d="M747.65 242.64C772.85 242.64 792.77 229.44 801.65 207.36L776.93 198C773.09 210.96 761.81 218.16 747.65 218.16C729.17 218.16 716.21 204.96 714.05 183.36H802.37V173.76C802.37 139.2 782.93 111.6 746.45 111.6C709.97 111.6 686.45 140.16 686.45 177.12C686.45 216 711.65 242.64 747.65 242.64ZM746.21 135.84C764.45 135.84 773.09 147.84 773.33 161.76H715.49C719.81 144.72 731.33 135.84 746.21 135.84Z" fill="black"/>
<path d="M823.98 240H852.781V166.08C852.781 148.08 865.98 138.48 878.94 138.48C894.78 138.48 901.021 149.76 901.021 165.36V240H929.82V156.96C929.82 129.84 913.981 111.6 887.581 111.6C871.261 111.6 859.981 119.04 852.781 127.44V114H823.98V240Z" fill="black"/>
<path d="M1014.17 67.6797L948.89 240H979.37L994.01 200.64H1068.41L1083.29 240H1114.25L1048.97 67.6797H1014.17ZM1030.97 101.76L1058.33 173.76H1004.09L1030.97 101.76Z" fill="black"/>
<path d="M1163.69 68.1797H1132.97V240.5H1163.69V68.1797Z" fill="black"/>
<path d="M297.06 130.97C304.32 109.18 301.82 85.3095 290.21 65.4895C272.75 35.0895 237.65 19.4495 203.37 26.8095C188.12 9.62953 166.21 -0.140469 143.24 -0.000468893C108.2 -0.0804689 77.1101 22.4795 66.3301 55.8195C43.8201 60.4295 24.3901 74.5195 13.0201 94.4895C-4.56991 124.81 -0.559916 163.03 22.9401 189.03C15.6801 210.82 18.1801 234.69 29.7901 254.51C47.2501 284.91 82.3501 300.55 116.63 293.19C131.87 310.37 153.79 320.14 176.76 319.99C211.82 320.08 242.92 297.5 253.7 264.13C276.21 259.52 295.64 245.43 307.01 225.46C324.58 195.14 320.56 156.95 297.07 130.95L297.06 130.97ZM176.78 299.08C162.75 299.1 149.16 294.19 138.39 285.2C138.88 284.94 139.73 284.47 140.28 284.13L204 247.33C207.26 245.48 209.26 242.01 209.24 238.26V148.43L236.17 163.98C236.46 164.12 236.65 164.4 236.69 164.72V239.11C236.65 272.19 209.86 299.01 176.78 299.08ZM47.9401 244.05C40.9101 231.91 38.3801 217.68 40.7901 203.87C41.2601 204.15 42.0901 204.66 42.6801 205L106.4 241.8C109.63 243.69 113.63 243.69 116.87 241.8L194.66 196.88V227.98C194.68 228.3 194.53 228.61 194.28 228.81L129.87 266C101.18 282.52 64.5401 272.7 47.9501 244.05H47.9401ZM31.1701 104.96C38.1701 92.7995 49.2201 83.4995 62.3801 78.6695C62.3801 79.2195 62.3501 80.1895 62.3501 80.8695V154.48C62.3301 158.22 64.3301 161.69 67.5801 163.54L145.37 208.45L118.44 224C118.17 224.18 117.83 224.21 117.53 224.08L53.1101 186.86C24.4801 170.28 14.6601 133.65 31.1601 104.97L31.1701 104.96ZM252.43 156.45L174.64 111.53L201.57 95.9895C201.84 95.8095 202.18 95.7795 202.48 95.9095L266.9 133.1C295.58 149.67 305.41 186.36 288.84 215.04C281.83 227.18 270.79 236.48 257.64 241.32V165.51C257.67 161.77 255.68 158.31 252.44 156.45H252.43ZM279.23 116.11C278.76 115.82 277.93 115.32 277.34 114.98L213.62 78.1795C210.39 76.2895 206.39 76.2895 203.15 78.1795L125.36 123.1V91.9995C125.34 91.6795 125.49 91.3695 125.74 91.1695L190.15 54.0095C218.84 37.4595 255.52 47.3095 272.06 76.0095C279.05 88.1295 281.58 102.32 279.21 116.11H279.23ZM110.72 171.54L83.7801 155.99C83.4901 155.85 83.3001 155.57 83.2601 155.25V80.8595C83.2801 47.7395 110.15 20.8995 143.27 20.9195C157.28 20.9195 170.84 25.8395 181.61 34.7995C181.12 35.0595 180.28 35.5295 179.72 35.8695L116 72.6695C112.74 74.5195 110.74 77.9795 110.76 81.7295L110.72 171.52V171.54ZM125.35 140L160 119.99L194.65 139.99V180L160 200L125.35 180V140Z" fill="black"/>
</g>
<defs>
<clipPath id="clip0_2115_10">
<rect width="1180" height="320" fill="white"/>
</clipPath>
</defs>
</svg>
